<?xml version="1.0" encoding="UTF-8" standalone="no"?>
<!DOCTYPE svg PUBLIC "-//W3C//DTD SVG 1.1//EN" "http://www.w3.org/Graphics/SVG/1.1/DTD/svg11.dtd">
<svg width="100%" height="100%" viewBox="0 0 300 62" version="1.1" xmlns="http://www.w3.org/2000/svg" xmlns:xlink="http://www.w3.org/1999/xlink" xml:space="preserve" xmlns:serif="http://www.serif.com/" style="fill-rule:evenodd;clip-rule:evenodd;stroke-linecap:round;stroke-linejoin:round;stroke-miterlimit:1.5;">
    <g id="text" transform="matrix(1,0,0,1,-58.4209,1.45088)">
        <g transform="matrix(24,0,0,24,145.731,36.3571)">
            <path d="M0.376,-0.7C0.465,-0.7 0.535,-0.679 0.586,-0.636C0.637,-0.593 0.662,-0.535 0.662,-0.46C0.662,-0.385 0.637,-0.327 0.586,-0.285C0.535,-0.242 0.465,-0.221 0.376,-0.221L0.188,-0.221L0.188,0L0.114,0L0.114,-0.7L0.376,-0.7ZM0.374,-0.286C0.443,-0.286 0.496,-0.301 0.533,-0.332C0.57,-0.362 0.588,-0.405 0.588,-0.46C0.588,-0.517 0.57,-0.56 0.533,-0.591C0.496,-0.621 0.443,-0.636 0.374,-0.636L0.188,-0.636L0.188,-0.286L0.374,-0.286Z" style="fill:rgb(69,90,100);fill-rule:nonzero;"/>
        </g>
        <g transform="matrix(24,0,0,24,162.603,36.3571)">
            <path d="M0.283,-0.53C0.352,-0.53 0.404,-0.513 0.441,-0.479C0.478,-0.444 0.496,-0.393 0.496,-0.326L0.496,0L0.428,0L0.428,-0.082C0.412,-0.055 0.389,-0.033 0.358,-0.018C0.327,-0.003 0.29,0.005 0.247,0.005C0.188,0.005 0.142,-0.009 0.107,-0.037C0.072,-0.065 0.055,-0.102 0.055,-0.148C0.055,-0.193 0.071,-0.229 0.104,-0.256C0.136,-0.283 0.187,-0.297 0.258,-0.297L0.425,-0.297L0.425,-0.329C0.425,-0.374 0.412,-0.409 0.387,-0.433C0.362,-0.456 0.325,-0.468 0.276,-0.468C0.243,-0.468 0.211,-0.463 0.18,-0.452C0.149,-0.44 0.123,-0.425 0.101,-0.406L0.069,-0.459C0.096,-0.482 0.128,-0.499 0.165,-0.512C0.202,-0.524 0.242,-0.53 0.283,-0.53ZM0.258,-0.051C0.298,-0.051 0.332,-0.06 0.361,-0.079C0.39,-0.097 0.411,-0.123 0.425,-0.158L0.425,-0.244L0.26,-0.244C0.17,-0.244 0.125,-0.213 0.125,-0.15C0.125,-0.119 0.137,-0.095 0.16,-0.078C0.183,-0.06 0.216,-0.051 0.258,-0.051Z" style="fill:rgb(69,90,100);fill-rule:nonzero;"/>
        </g>
        <g transform="matrix(24,0,0,24,176.811,36.3571)">
            <path d="M0.586,-0.526L0.586,-0.064C0.586,0.025 0.564,0.092 0.521,0.135C0.477,0.178 0.411,0.199 0.323,0.199C0.274,0.199 0.228,0.192 0.185,0.178C0.141,0.163 0.105,0.143 0.078,0.118L0.114,0.064C0.139,0.087 0.17,0.104 0.207,0.117C0.243,0.13 0.281,0.136 0.321,0.136C0.388,0.136 0.437,0.121 0.468,0.09C0.499,0.058 0.515,0.01 0.515,-0.055L0.515,-0.122C0.493,-0.089 0.464,-0.063 0.429,-0.046C0.393,-0.029 0.353,-0.02 0.31,-0.02C0.261,-0.02 0.216,-0.031 0.176,-0.053C0.135,-0.074 0.103,-0.105 0.081,-0.144C0.057,-0.183 0.046,-0.227 0.046,-0.276C0.046,-0.325 0.057,-0.369 0.081,-0.408C0.103,-0.447 0.135,-0.477 0.175,-0.498C0.215,-0.519 0.26,-0.53 0.31,-0.53C0.355,-0.53 0.395,-0.521 0.431,-0.503C0.467,-0.485 0.496,-0.459 0.518,-0.425L0.518,-0.526L0.586,-0.526ZM0.317,-0.083C0.355,-0.083 0.389,-0.091 0.42,-0.108C0.451,-0.124 0.474,-0.147 0.492,-0.176C0.509,-0.205 0.517,-0.239 0.517,-0.276C0.517,-0.313 0.509,-0.347 0.492,-0.376C0.474,-0.405 0.451,-0.427 0.421,-0.444C0.39,-0.46 0.356,-0.468 0.317,-0.468C0.279,-0.468 0.245,-0.46 0.215,-0.444C0.184,-0.428 0.161,-0.405 0.144,-0.376C0.127,-0.347 0.118,-0.313 0.118,-0.276C0.118,-0.239 0.127,-0.205 0.144,-0.176C0.161,-0.147 0.184,-0.124 0.215,-0.108C0.245,-0.091 0.279,-0.083 0.317,-0.083Z" style="fill:rgb(69,90,100);fill-rule:nonzero;"/>
        </g>
        <g transform="matrix(24,0,0,24,193.275,36.3571)">
            <path d="M0.557,-0.241L0.117,-0.241C0.121,-0.186 0.142,-0.142 0.18,-0.109C0.218,-0.075 0.266,-0.058 0.324,-0.058C0.357,-0.058 0.387,-0.064 0.414,-0.076C0.441,-0.087 0.465,-0.104 0.485,-0.127L0.525,-0.081C0.502,-0.053 0.472,-0.032 0.438,-0.017C0.403,-0.002 0.364,0.005 0.322,0.005C0.268,0.005 0.22,-0.007 0.179,-0.03C0.137,-0.053 0.104,-0.084 0.081,-0.125C0.058,-0.166 0.046,-0.212 0.046,-0.263C0.046,-0.314 0.057,-0.36 0.08,-0.401C0.102,-0.442 0.133,-0.473 0.172,-0.496C0.211,-0.519 0.254,-0.53 0.303,-0.53C0.352,-0.53 0.395,-0.519 0.434,-0.496C0.473,-0.473 0.503,-0.442 0.525,-0.402C0.547,-0.361 0.558,-0.315 0.558,-0.263L0.557,-0.241ZM0.303,-0.469C0.252,-0.469 0.21,-0.453 0.176,-0.421C0.141,-0.388 0.122,-0.346 0.117,-0.294L0.49,-0.294C0.485,-0.346 0.466,-0.388 0.432,-0.421C0.397,-0.453 0.354,-0.469 0.303,-0.469Z" style="fill:rgb(69,90,100);fill-rule:nonzero;"/>
        </g>
        <g transform="matrix(24,0,0,24,214.059,36.3571)">
            <path d="M0.418,0.006C0.349,0.006 0.286,-0.009 0.231,-0.04C0.175,-0.071 0.131,-0.113 0.1,-0.168C0.068,-0.222 0.052,-0.283 0.052,-0.35C0.052,-0.417 0.068,-0.478 0.1,-0.533C0.131,-0.587 0.175,-0.629 0.231,-0.66C0.287,-0.691 0.35,-0.706 0.419,-0.706C0.471,-0.706 0.519,-0.697 0.563,-0.68C0.607,-0.663 0.644,-0.637 0.675,-0.604L0.628,-0.557C0.573,-0.612 0.504,-0.64 0.421,-0.64C0.366,-0.64 0.315,-0.627 0.27,-0.602C0.225,-0.577 0.189,-0.542 0.164,-0.498C0.138,-0.454 0.125,-0.405 0.125,-0.35C0.125,-0.295 0.138,-0.246 0.164,-0.202C0.189,-0.158 0.225,-0.123 0.27,-0.098C0.315,-0.073 0.366,-0.06 0.421,-0.06C0.505,-0.06 0.574,-0.088 0.628,-0.144L0.675,-0.097C0.644,-0.064 0.607,-0.038 0.563,-0.021C0.518,-0.003 0.47,0.006 0.418,0.006Z" style="fill:rgb(69,90,100);fill-rule:nonzero;"/>
        </g>
        <g transform="matrix(24,0,0,24,231.123,36.3571)">
            <path d="M0.283,-0.53C0.352,-0.53 0.404,-0.513 0.441,-0.479C0.478,-0.444 0.496,-0.393 0.496,-0.326L0.496,0L0.428,0L0.428,-0.082C0.412,-0.055 0.389,-0.033 0.358,-0.018C0.327,-0.003 0.29,0.005 0.247,0.005C0.188,0.005 0.142,-0.009 0.107,-0.037C0.072,-0.065 0.055,-0.102 0.055,-0.148C0.055,-0.193 0.071,-0.229 0.104,-0.256C0.136,-0.283 0.187,-0.297 0.258,-0.297L0.425,-0.297L0.425,-0.329C0.425,-0.374 0.412,-0.409 0.387,-0.433C0.362,-0.456 0.325,-0.468 0.276,-0.468C0.243,-0.468 0.211,-0.463 0.18,-0.452C0.149,-0.44 0.123,-0.425 0.101,-0.406L0.069,-0.459C0.096,-0.482 0.128,-0.499 0.165,-0.512C0.202,-0.524 0.242,-0.53 0.283,-0.53ZM0.258,-0.051C0.298,-0.051 0.332,-0.06 0.361,-0.079C0.39,-0.097 0.411,-0.123 0.425,-0.158L0.425,-0.244L0.26,-0.244C0.17,-0.244 0.125,-0.213 0.125,-0.15C0.125,-0.119 0.137,-0.095 0.16,-0.078C0.183,-0.06 0.216,-0.051 0.258,-0.051Z" style="fill:rgb(69,90,100);fill-rule:nonzero;"/>
        </g>
        <g transform="matrix(24,0,0,24,245.283,36.3571)">
            <path d="M0.37,-0.53C0.419,-0.53 0.464,-0.519 0.504,-0.497C0.544,-0.474 0.575,-0.443 0.598,-0.402C0.621,-0.361 0.632,-0.315 0.632,-0.263C0.632,-0.21 0.621,-0.164 0.598,-0.123C0.575,-0.082 0.544,-0.051 0.505,-0.029C0.465,-0.006 0.42,0.005 0.37,0.005C0.327,0.005 0.289,-0.004 0.255,-0.022C0.22,-0.039 0.192,-0.065 0.17,-0.099L0.17,0.194L0.099,0.194L0.099,-0.526L0.167,-0.526L0.167,-0.422C0.188,-0.457 0.217,-0.483 0.252,-0.502C0.286,-0.521 0.326,-0.53 0.37,-0.53ZM0.365,-0.058C0.402,-0.058 0.435,-0.067 0.465,-0.084C0.495,-0.1 0.519,-0.125 0.536,-0.156C0.553,-0.187 0.561,-0.223 0.561,-0.263C0.561,-0.303 0.553,-0.339 0.536,-0.37C0.519,-0.401 0.495,-0.425 0.465,-0.442C0.435,-0.459 0.402,-0.468 0.365,-0.468C0.328,-0.468 0.294,-0.459 0.265,-0.442C0.235,-0.425 0.212,-0.401 0.195,-0.37C0.178,-0.339 0.169,-0.303 0.169,-0.263C0.169,-0.223 0.178,-0.187 0.195,-0.156C0.212,-0.125 0.235,-0.1 0.265,-0.084C0.294,-0.067 0.328,-0.058 0.365,-0.058Z" style="fill:rgb(69,90,100);fill-rule:nonzero;"/>
        </g>
        <g transform="matrix(24,0,0,24,261.555,36.3571)">
            <path d="M0.376,-0.032C0.363,-0.02 0.346,-0.011 0.327,-0.005C0.307,0.002 0.286,0.005 0.265,0.005C0.216,0.005 0.178,-0.008 0.151,-0.035C0.124,-0.062 0.111,-0.099 0.111,-0.148L0.111,-0.466L0.017,-0.466L0.017,-0.526L0.111,-0.526L0.111,-0.641L0.182,-0.641L0.182,-0.526L0.342,-0.526L0.342,-0.466L0.182,-0.466L0.182,-0.152C0.182,-0.121 0.19,-0.097 0.206,-0.081C0.221,-0.064 0.244,-0.056 0.273,-0.056C0.288,-0.056 0.302,-0.058 0.316,-0.063C0.329,-0.068 0.341,-0.074 0.351,-0.083L0.376,-0.032Z" style="fill:rgb(69,90,100);fill-rule:nonzero;"/>
        </g>
        <g transform="matrix(24,0,0,24,271.299,36.3571)">
            <path d="M0.573,-0.526L0.573,0L0.505,0L0.505,-0.096C0.486,-0.064 0.461,-0.039 0.428,-0.022C0.395,-0.004 0.358,0.005 0.316,0.005C0.247,0.005 0.193,-0.014 0.154,-0.053C0.114,-0.091 0.094,-0.147 0.094,-0.221L0.094,-0.526L0.165,-0.526L0.165,-0.228C0.165,-0.173 0.179,-0.131 0.206,-0.102C0.233,-0.073 0.272,-0.059 0.323,-0.059C0.378,-0.059 0.422,-0.076 0.454,-0.11C0.486,-0.143 0.502,-0.19 0.502,-0.25L0.502,-0.526L0.573,-0.526Z" style="fill:rgb(69,90,100);fill-rule:nonzero;"/>
        </g>
        <g transform="matrix(24,0,0,24,287.451,36.3571)">
            <path d="M0.167,-0.423C0.184,-0.458 0.209,-0.485 0.242,-0.503C0.274,-0.521 0.315,-0.53 0.364,-0.53L0.364,-0.461L0.347,-0.462C0.292,-0.462 0.248,-0.445 0.217,-0.411C0.186,-0.377 0.17,-0.329 0.17,-0.268L0.17,0L0.099,0L0.099,-0.526L0.167,-0.526L0.167,-0.423Z" style="fill:rgb(69,90,100);fill-rule:nonzero;"/>
        </g>
        <g transform="matrix(24,0,0,24,296.763,36.3571)">
            <path d="M0.557,-0.241L0.117,-0.241C0.121,-0.186 0.142,-0.142 0.18,-0.109C0.218,-0.075 0.266,-0.058 0.324,-0.058C0.357,-0.058 0.387,-0.064 0.414,-0.076C0.441,-0.087 0.465,-0.104 0.485,-0.127L0.525,-0.081C0.502,-0.053 0.472,-0.032 0.438,-0.017C0.403,-0.002 0.364,0.005 0.322,0.005C0.268,0.005 0.22,-0.007 0.179,-0.03C0.137,-0.053 0.104,-0.084 0.081,-0.125C0.058,-0.166 0.046,-0.212 0.046,-0.263C0.046,-0.314 0.057,-0.36 0.08,-0.401C0.102,-0.442 0.133,-0.473 0.172,-0.496C0.211,-0.519 0.254,-0.53 0.303,-0.53C0.352,-0.53 0.395,-0.519 0.434,-0.496C0.473,-0.473 0.503,-0.442 0.525,-0.402C0.547,-0.361 0.558,-0.315 0.558,-0.263L0.557,-0.241ZM0.303,-0.469C0.252,-0.469 0.21,-0.453 0.176,-0.421C0.141,-0.388 0.122,-0.346 0.117,-0.294L0.49,-0.294C0.485,-0.346 0.466,-0.388 0.432,-0.421C0.397,-0.453 0.354,-0.469 0.303,-0.469Z" style="fill:rgb(69,90,100);fill-rule:nonzero;"/>
        </g>
        <g transform="matrix(24,0,0,24,317.547,36.3571)">
            <path d="M0.331,-0.329L0.188,-0.184L0.188,0L0.114,0L0.114,-0.7L0.188,-0.7L0.188,-0.277L0.599,-0.7L0.684,-0.7L0.381,-0.383L0.705,0L0.617,0L0.331,-0.329Z" style="fill:rgb(69,90,100);fill-rule:nonzero;"/>
        </g>
        <g transform="matrix(24,0,0,24,334.371,36.3571)">
            <path d="M0.099,-0.526L0.17,-0.526L0.17,0L0.099,0L0.099,-0.526ZM0.135,-0.641C0.12,-0.641 0.108,-0.646 0.098,-0.656C0.088,-0.666 0.083,-0.678 0.083,-0.692C0.083,-0.705 0.088,-0.717 0.098,-0.727C0.108,-0.737 0.12,-0.742 0.135,-0.742C0.15,-0.742 0.162,-0.737 0.172,-0.728C0.182,-0.718 0.187,-0.706 0.187,-0.693C0.187,-0.678 0.182,-0.666 0.172,-0.656C0.162,-0.646 0.15,-0.641 0.135,-0.641Z" style="fill:rgb(69,90,100);fill-rule:nonzero;"/>
        </g>
        <g transform="matrix(24,0,0,24,340.827,36.3571)">
            <path d="M0.376,-0.032C0.363,-0.02 0.346,-0.011 0.327,-0.005C0.307,0.002 0.286,0.005 0.265,0.005C0.216,0.005 0.178,-0.008 0.151,-0.035C0.124,-0.062 0.111,-0.099 0.111,-0.148L0.111,-0.466L0.017,-0.466L0.017,-0.526L0.111,-0.526L0.111,-0.641L0.182,-0.641L0.182,-0.526L0.342,-0.526L0.342,-0.466L0.182,-0.466L0.182,-0.152C0.182,-0.121 0.19,-0.097 0.206,-0.081C0.221,-0.064 0.244,-0.056 0.273,-0.056C0.288,-0.056 0.302,-0.058 0.316,-0.063C0.329,-0.068 0.341,-0.074 0.351,-0.083L0.376,-0.032Z" style="fill:rgb(69,90,100);fill-rule:nonzero;"/>
        </g>
    </g>
    <g id="icon" transform="matrix(0.351648,0,0,0.351648,-56.7064,-21.5385)">
        <path d="M350,104.146C350,101.858 348.142,100 345.854,100L204.146,100C201.858,100 200,101.858 200,104.146L200,195.854C200,198.142 201.858,200 204.146,200L345.854,200C348.142,200 350,198.142 350,195.854L350,104.146ZM345.044,119.543L205.044,119.543L205.044,194.543L345.044,194.543L345.044,119.543Z" style="fill:rgb(227,242,253);"/>
        <g transform="matrix(0.985162,0,0,0.985162,25.8665,-1.20805)">
            <circle cx="318.865" cy="112.883" r="5.075" style="fill:rgb(244,67,54);"/>
        </g>
        <g transform="matrix(0.985162,0,0,0.985162,10.8665,-1.20805)">
            <circle cx="318.865" cy="112.883" r="5.075" style="fill:rgb(255,235,59);"/>
        </g>
        <g transform="matrix(0.985162,0,0,0.985162,-4.13354,-1.20805)">
            <circle cx="318.865" cy="112.883" r="5.075" style="fill:rgb(76,175,80);"/>
        </g>
        <g>
            <g transform="matrix(1.00331,0,0,0.986767,-1.16848,1.10213)">
                <ellipse cx="226.418" cy="141.774" rx="5.98" ry="6.08" style="fill:rgb(96,125,139);"/>
            </g>
            <g transform="matrix(1.33775,0,0,1.31569,-76.8913,-45.5305)">
                <ellipse cx="226.418" cy="141.774" rx="5.98" ry="6.08" style="fill:none;stroke:rgb(189,189,189);stroke-width:2.14px;"/>
            </g>
        </g>
        <g transform="matrix(1,0,0,1,30,33)">
            <g transform="matrix(1.00331,0,0,0.986767,-1.16848,1.10213)">
                <ellipse cx="226.418" cy="141.774" rx="5.98" ry="6.08" style="fill:rgb(96,125,139);"/>
            </g>
            <g transform="matrix(1.33775,0,0,1.31569,-76.8913,-45.5305)">
                <ellipse cx="226.418" cy="141.774" rx="5.98" ry="6.08" style="fill:none;stroke:rgb(189,189,189);stroke-width:2.14px;"/>
            </g>
        </g>
        <g transform="matrix(1,0,0,1,80,33)">
            <g transform="matrix(1.00331,0,0,0.986767,-1.16848,1.10213)">
                <ellipse cx="226.418" cy="141.774" rx="5.98" ry="6.08" style="fill:rgb(96,125,139);"/>
            </g>
            <g transform="matrix(1.33775,0,0,1.31569,-76.8913,-45.5305)">
                <ellipse cx="226.418" cy="141.774" rx="5.98" ry="6.08" style="fill:none;stroke:rgb(189,189,189);stroke-width:2.14px;"/>
            </g>
        </g>
        <g transform="matrix(1,0,0,1,98,0)">
            <g transform="matrix(1.00331,0,0,0.986767,-1.16848,1.10213)">
                <ellipse cx="226.418" cy="141.774" rx="5.98" ry="6.08" style="fill:rgb(96,125,139);"/>
            </g>
            <g transform="matrix(1.33775,0,0,1.31569,-76.8913,-45.5305)">
                <ellipse cx="226.418" cy="141.774" rx="5.98" ry="6.08" style="fill:none;stroke:rgb(189,189,189);stroke-width:2.14px;"/>
            </g>
        </g>
        <g transform="matrix(1,0,0,1,0,2)">
            <path d="M240.805,140.924L248.805,140.924C249.908,140.924 250.805,140.028 250.805,138.924C250.805,137.82 249.908,136.924 248.805,136.924L240.805,136.924C239.701,136.924 238.805,137.82 238.805,138.924C238.805,140.028 239.701,140.924 240.805,140.924ZM256.805,140.924L264.805,140.924C265.908,140.924 266.805,140.028 266.805,138.924C266.805,137.82 265.908,136.924 264.805,136.924L256.805,136.924C255.701,136.924 254.805,137.82 254.805,138.924C254.805,140.028 255.701,140.924 256.805,140.924ZM272.805,140.924L280.805,140.924C281.908,140.924 282.805,140.028 282.805,138.924C282.805,137.82 281.908,136.924 280.805,136.924L272.805,136.924C271.701,136.924 270.805,137.82 270.805,138.924C270.805,140.028 271.701,140.924 272.805,140.924ZM288.805,140.924L296.805,140.924C297.908,140.924 298.805,140.028 298.805,138.924C298.805,137.82 297.908,136.924 296.805,136.924L288.805,136.924C287.701,136.924 286.805,137.82 286.805,138.924C286.805,140.028 287.701,140.924 288.805,140.924ZM304.805,140.924L309.476,140.924C310.58,140.924 311.476,140.028 311.476,138.924C311.476,137.82 310.58,136.924 309.476,136.924L304.805,136.924C303.701,136.924 302.805,137.82 302.805,138.924C302.805,140.028 303.701,140.924 304.805,140.924Z" style="fill:rgb(224,224,224);"/>
        </g>
        <g transform="matrix(0.377186,0,0,1,177.613,35)">
            <path d="M240.805,140.924L262.014,140.924C264.941,140.924 267.317,140.028 267.317,138.924C267.317,137.82 264.941,136.924 262.014,136.924L240.805,136.924C237.878,136.924 235.502,137.82 235.502,138.924C235.502,140.028 237.878,140.924 240.805,140.924ZM283.224,140.924L304.434,140.924C307.36,140.924 309.736,140.028 309.736,138.924C309.736,137.82 307.36,136.924 304.434,136.924L283.224,136.924C280.297,136.924 277.922,137.82 277.922,138.924C277.922,140.028 280.297,140.924 283.224,140.924Z" style="fill:rgb(224,224,224);"/>
        </g>
        <g transform="matrix(0.776363,0,0,1,72.876,9.30187)">
            <path d="M253.033,160.099C253.033,160.099 256.837,158.818 262.488,156.917C263.792,156.478 264.392,155.299 263.827,154.286C263.261,153.274 261.743,152.808 260.439,153.247C254.788,155.148 250.984,156.429 250.984,156.429C249.68,156.868 249.08,158.046 249.645,159.059C250.211,160.072 251.729,160.538 253.033,160.099ZM271.942,153.735C274.981,152.713 278.186,151.634 281.397,150.553C282.701,150.114 283.301,148.936 282.736,147.923C282.17,146.91 280.652,146.444 279.348,146.883C276.136,147.964 272.931,149.043 269.893,150.065C268.589,150.504 267.989,151.683 268.554,152.696C269.12,153.708 270.638,154.174 271.942,153.735ZM290.851,147.372C294.268,146.222 297.493,145.136 300.306,144.19C301.61,143.751 302.21,142.572 301.645,141.56C301.079,140.547 299.561,140.081 298.256,140.52C295.444,141.466 292.219,142.552 288.802,143.702C287.497,144.141 286.897,145.319 287.463,146.332C288.028,147.345 289.547,147.811 290.851,147.372Z" style="fill:rgb(224,224,224);"/>
        </g>
        <g transform="matrix(1,0,0,1,-1,6)">
            <path d="M185.009,102L185.009,78L209.009,78L209.009,86L193.009,86L193.009,102L185.009,102Z" style="fill:rgb(96,125,139);"/>
        </g>
        <g transform="matrix(1,0,0,-1,-1,294)">
            <path d="M185.009,102L185.009,78L209.009,78L209.009,86L193.009,86L193.009,102L185.009,102Z" style="fill:rgb(96,125,139);"/>
        </g>
        <g transform="matrix(-1,0,0,1,551.018,6)">
            <path d="M185.009,102L185.009,78L209.009,78L209.009,86L193.009,86L193.009,102L185.009,102Z" style="fill:rgb(96,125,139);"/>
        </g>
        <g transform="matrix(-1,0,0,-1,551.018,294)">
            <path d="M185.009,102L185.009,78L209.009,78L209.009,86L193.009,86L193.009,102L185.009,102Z" style="fill:rgb(96,125,139);"/>
        </g>
    </g>
</svg>
